# xmcd
#
# Track frame offsets: 
#        150
#        13712
#        26935
#        41702
#        57140
#        72430
#        88157
#        103697
#        119505
#        135442
#        151255
#        165452
#        178957
#        195007
#        211140
#        226935
#        242350
#        257275
#        272720
#        287787
#        303170
#        318337
#        332452
#
# Disc length: 4644 seconds
#
# Revision: 2
# Processed by: cddbd v1.5.2PL0 Copyright (c) Steve Scherf et al.
# Submitted via: ExactAudioCopyFreeDBPlugin 1.0
#
DISCID=34122217
DTITLE=Casa Loma Orchestra - Casa Loma Orchestra - Casa Loma Stomp 
DYEAR=1997
DGENRE=Jazz
TTITLE0=Love Is a Dreamer
TTITLE1=Lucky Me, Lovable You
TTITLE2=Happy Days Are Here Again v. J. Richmond
TTITLE3=Sweeping the Clouds Away v. J. Richmond
TTITLE4=Sweeping the Clouds Away
TTITLE5=Anytime's the Time to Fall In Love v. J. Richmond
TTITLE6=Anytime's the Time to Fall In Love
TTITLE7=China Girl
TTITLE8=San Sue Strut
TTITLE9=When the Little Red Roses (Get the Blues for You) v. J. Richmo
TTITLE9=nd
TTITLE10=When the Little Red Roses (Get the Blues for You)
TTITLE11=Thank You Father
TTITLE12=Exactly Like You (vcl)
TTITLE13=Exactly Like You
TTITLE14=Dust
TTITLE15=Leave It That Way
TTITLE16=On the Sunny Side of the Street
TTITLE17=Alexander's Ragtime Band v. Pee We Hunt
TTITLE18=Casa Loma Stomp
TTITLE19=Overnight  v. J. Richmond
TTITLE20=Put On Your Old Grey Bonnet v. Pee Wee Hunt
TTITLE21=Little Did I Know  v. J. Richmond
TTITLE22=Royal Garden Blues
EXTD=YEAR: 1929
EXTT0=
EXTT1=
EXTT2=
EXTT3=
EXTT4=
EXTT5=
EXTT6=
EXTT7=
EXTT8=
EXTT9=
EXTT10=
EXTT11=
EXTT12=
EXTT13=
EXTT14=
EXTT15=
EXTT16=
EXTT17=
EXTT18=
EXTT19=
EXTT20=
EXTT21=
EXTT22=
PLAYORDER=
